<svg width="800" height="800" viewBox="0 0 800 800" fill="none" xmlns="http://www.w3.org/2000/svg">
<path d="M-1.73245e-05 400L200 53.5899L600 53.5899L800 400L600 746.41L200 746.41L-1.73245e-05 400Z" fill="#1F1F1F"/>
<ellipse cx="400" cy="399.332" rx="33.3333" ry="33.389" fill="#7F7F7F"/>
<ellipse cx="153.333" cy="332.555" rx="33.3333" ry="33.389" fill="#7F7F7F"/>
<ellipse cx="150.667" cy="466.11" rx="33.3333" ry="33.389" fill="#7F7F7F"/>
<ellipse cx="224" cy="332.555" rx="33.3333" ry="33.389" fill="#7F7F7F"/>
<ellipse cx="221.333" cy="466.11" rx="33.3333" ry="33.389" fill="#7F7F7F"/>
<ellipse cx="294.667" cy="332.555" rx="33.3333" ry="33.389" fill="#7F7F7F"/>
<ellipse cx="292" cy="466.11" rx="33.3333" ry="33.389" fill="#7F7F7F"/>
<ellipse cx="436" cy="332.555" rx="33.3333" ry="33.389" fill="#7F7F7F"/>
<ellipse cx="433.333" cy="466.11" rx="33.3333" ry="33.389" fill="#7F7F7F"/>
<ellipse cx="365.333" cy="332.555" rx="33.3333" ry="33.389" fill="#7F7F7F"/>
<ellipse cx="362.667" cy="466.11" rx="33.3333" ry="33.389" fill="#7F7F7F"/>
<ellipse cx="506.667" cy="332.555" rx="33.3333" ry="33.389" fill="#7F7F7F"/>
<ellipse cx="504" cy="466.11" rx="33.3333" ry="33.389" fill="#7F7F7F"/>
<ellipse cx="577.333" cy="332.555" rx="33.3333" ry="33.389" fill="#7F7F7F"/>
<ellipse cx="574.667" cy="466.11" rx="33.3333" ry="33.389" fill="#7F7F7F"/>
<ellipse cx="648" cy="332.555" rx="33.3333" ry="33.389" fill="#7F7F7F"/>
<ellipse cx="645.333" cy="466.11" rx="33.3333" ry="33.389" fill="#7F7F7F"/>
<ellipse cx="190.667" cy="265.777" rx="33.3333" ry="33.389" fill="#7F7F7F"/>
<ellipse cx="184" cy="532.888" rx="33.3333" ry="33.389" fill="#7F7F7F"/>
<ellipse cx="261.333" cy="265.777" rx="33.3333" ry="33.389" fill="#7F7F7F"/>
<ellipse cx="254.667" cy="532.888" rx="33.3333" ry="33.389" fill="#7F7F7F"/>
<ellipse cx="332" cy="265.777" rx="33.3333" ry="33.389" fill="#DEDEDE"/>
<ellipse cx="325.333" cy="532.888" rx="33.3333" ry="33.389" fill="#BB1717"/>
<ellipse cx="402.667" cy="265.777" rx="33.3333" ry="33.389" fill="#DEDEDE"/>
<ellipse cx="396" cy="532.888" rx="33.3333" ry="33.389" fill="#BB1717"/>
<ellipse cx="473.333" cy="265.777" rx="33.3333" ry="33.389" fill="#DEDEDE"/>
<ellipse cx="466.667" cy="532.888" rx="33.3333" ry="33.389" fill="#BB1717"/>
<ellipse cx="544" cy="265.777" rx="33.3333" ry="33.389" fill="#7F7F7F"/>
<ellipse cx="537.333" cy="532.888" rx="33.3333" ry="33.389" fill="#7F7F7F"/>
<ellipse cx="614.667" cy="265.777" rx="33.3333" ry="33.389" fill="#7F7F7F"/>
<ellipse cx="608" cy="532.888" rx="33.3333" ry="33.389" fill="#7F7F7F"/>
<ellipse cx="228" cy="198.999" rx="33.3333" ry="33.389" fill="#DEDEDE"/>
<ellipse cx="298.667" cy="198.999" rx="33.3333" ry="33.389" fill="#DEDEDE"/>
<ellipse cx="369.333" cy="198.999" rx="33.3333" ry="33.389" fill="#DEDEDE"/>
<ellipse cx="440" cy="198.999" rx="33.3333" ry="33.389" fill="#DEDEDE"/>
<ellipse cx="510.667" cy="198.999" rx="33.3333" ry="33.389" fill="#DEDEDE"/>
<ellipse cx="581.333" cy="198.999" rx="33.3333" ry="33.389" fill="#DEDEDE"/>
<ellipse cx="217.333" cy="599.666" rx="33.3333" ry="33.389" fill="#BB1717"/>
<ellipse cx="288" cy="599.666" rx="33.3333" ry="33.389" fill="#BB1717"/>
<ellipse cx="358.667" cy="599.666" rx="33.3333" ry="33.389" fill="#BB1717"/>
<ellipse cx="429.333" cy="599.666" rx="33.3333" ry="33.389" fill="#BB1717"/>
<ellipse cx="500" cy="599.666" rx="33.3333" ry="33.389" fill="#BB1717"/>
<ellipse cx="570.667" cy="599.666" rx="33.3333" ry="33.389" fill="#BB1717"/>
<ellipse cx="265.333" cy="132.221" rx="33.3333" ry="33.389" fill="#DEDEDE"/>
<ellipse cx="336" cy="132.221" rx="33.3333" ry="33.389" fill="#DEDEDE"/>
<ellipse cx="406.667" cy="132.221" rx="33.3333" ry="33.389" fill="#DEDEDE"/>
<ellipse cx="477.333" cy="132.221" rx="33.3333" ry="33.389" fill="#DEDEDE"/>
<ellipse cx="548" cy="132.221" rx="33.3333" ry="33.389" fill="#DEDEDE"/>
<ellipse cx="250.667" cy="666.444" rx="33.3333" ry="33.389" fill="#BB1717"/>
<ellipse cx="321.333" cy="666.444" rx="33.3333" ry="33.389" fill="#BB1717"/>
<ellipse cx="392" cy="666.444" rx="33.3333" ry="33.389" fill="#BB1717"/>
<ellipse cx="462.667" cy="666.444" rx="33.3333" ry="33.389" fill="#BB1717"/>
<ellipse cx="533.333" cy="666.444" rx="33.3333" ry="33.389" fill="#BB1717"/>
<ellipse cx="329.333" cy="399.332" rx="33.3333" ry="33.389" fill="#7F7F7F"/>
<ellipse cx="258.667" cy="399.332" rx="33.3333" ry="33.389" fill="#7F7F7F"/>
<ellipse cx="188" cy="399.332" rx="33.3333" ry="33.389" fill="#7F7F7F"/>
<ellipse cx="117.333" cy="399.332" rx="33.3333" ry="33.389" fill="#7F7F7F"/>
<ellipse cx="470.667" cy="399.332" rx="33.3333" ry="33.389" fill="#7F7F7F"/>
<ellipse cx="541.333" cy="399.332" rx="33.3333" ry="33.389" fill="#7F7F7F"/>
<ellipse cx="612" cy="399.332" rx="33.3333" ry="33.389" fill="#7F7F7F"/>
<ellipse cx="682.667" cy="399.332" rx="33.3333" ry="33.389" fill="#7F7F7F"/>
</svg>
