<svg width="244" height="69" viewBox="0 0 244 69" fill="none" xmlns="http://www.w3.org/2000/svg">
<path d="M73.584 40.6H61.884L59.652 46H53.676L64.908 20.8H70.668L81.936 46H75.816L73.584 40.6ZM71.748 36.172L67.752 26.524L63.756 36.172H71.748ZM103.055 32.896C104.495 33.352 105.623 34.12 106.439 35.2C107.255 36.256 107.663 37.564 107.663 39.124C107.663 41.332 106.799 43.036 105.071 44.236C103.367 45.412 100.871 46 97.5825 46H84.5505V20.8H96.8625C99.9345 20.8 102.287 21.388 103.919 22.564C105.575 23.74 106.403 25.336 106.403 27.352C106.403 28.576 106.103 29.668 105.503 30.628C104.927 31.588 104.111 32.344 103.055 32.896ZM90.3465 25.192V31.132H96.1425C97.5825 31.132 98.6745 30.88 99.4185 30.376C100.163 29.872 100.535 29.128 100.535 28.144C100.535 27.16 100.163 26.428 99.4185 25.948C98.6745 25.444 97.5825 25.192 96.1425 25.192H90.3465ZM97.1505 41.608C98.6865 41.608 99.8385 41.356 100.607 40.852C101.399 40.348 101.795 39.568 101.795 38.512C101.795 36.424 100.247 35.38 97.1505 35.38H90.3465V41.608H97.1505ZM128.674 40.6H116.974L114.742 46H108.766L119.998 20.8H125.758L137.026 46H130.906L128.674 40.6ZM126.838 36.172L122.842 26.524L118.846 36.172H126.838ZM139.64 20.8H145.472V41.248H158.108V46H139.64V20.8ZM173.149 46.432C170.533 46.432 168.169 45.868 166.057 44.74C163.969 43.612 162.325 42.064 161.125 40.096C159.949 38.104 159.361 35.872 159.361 33.4C159.361 30.928 159.949 28.708 161.125 26.74C162.325 24.748 163.969 23.188 166.057 22.06C168.169 20.932 170.533 20.368 173.149 20.368C175.765 20.368 178.117 20.932 180.205 22.06C182.293 23.188 183.937 24.748 185.137 26.74C186.337 28.708 186.937 30.928 186.937 33.4C186.937 35.872 186.337 38.104 185.137 40.096C183.937 42.064 182.293 43.612 180.205 44.74C178.117 45.868 175.765 46.432 173.149 46.432ZM173.149 41.464C174.637 41.464 175.981 41.128 177.181 40.456C178.381 39.76 179.317 38.8 179.989 37.576C180.685 36.352 181.033 34.96 181.033 33.4C181.033 31.84 180.685 30.448 179.989 29.224C179.317 28 178.381 27.052 177.181 26.38C175.981 25.684 174.637 25.336 173.149 25.336C171.661 25.336 170.317 25.684 169.117 26.38C167.917 27.052 166.969 28 166.273 29.224C165.601 30.448 165.265 31.84 165.265 33.4C165.265 34.96 165.601 36.352 166.273 37.576C166.969 38.8 167.917 39.76 169.117 40.456C170.317 41.128 171.661 41.464 173.149 41.464ZM214.432 20.8V46H209.644L197.08 30.7V46H191.32V20.8H196.144L208.672 36.1V20.8H214.432ZM239.906 41.32V46H220.394V20.8H239.438V25.48H226.19V30.952H237.89V35.488H226.19V41.32H239.906Z" fill="white"/>
<path d="M58.8658 10.0998C54.0433 5.27732 47.899 1.99316 41.21 0.662628C34.521 -0.667892 27.5877 0.0149765 21.2868 2.6249C14.9859 5.23481 9.60041 9.65456 5.81139 15.3252C2.02238 20.9959 4.20039e-07 27.6628 0 34.4828C-4.20039e-07 41.3029 2.02238 47.9697 5.81139 53.6404C9.60041 59.3111 14.9859 63.7308 21.2868 66.3407C27.5877 68.9507 34.521 69.6335 41.21 68.303C47.899 66.9725 54.0433 63.6883 58.8658 58.8658L34.4828 34.4828L58.8658 10.0998Z" fill="#BB1717"/>
<path d="M58.8658 10.0998C54.0433 5.27732 47.899 1.99316 41.21 0.662628C34.521 -0.667892 27.5877 0.0149765 21.2868 2.6249C14.9859 5.23482 9.60041 9.65456 5.81139 15.3252C2.02238 20.9959 -5.96227e-07 27.6628 0 34.4828L34.4828 34.4828L58.8658 10.0998Z" fill="white"/>
</svg>
